<svg xmlns="http://www.w3.org/2000/svg" width="305" height="304" viewBox="0 0 305 304" fill="none">
  <defs>
    <filter id="f1" x="0" y="0">
      <feGaussianBlur in="SourceGraphic" stdDeviation="5"/>
    </filter>
  </defs>

  <path xmlns="http://www.w3.org/2000/svg" d="M304.5 -9.15527e-05C221.661 -9.15527e-05 80.4639 -9.15527e-05 2.99042e-09 -9.15527e-05C2.99042e-09 82.8369 -0.000150421 245 1.0476e-05 304C82.839 304 221 304 304.5 304C304.5 221.159 304.5 76.3299 304.5 -9.15527e-05ZM147 304H87.4999C87.4999 257.144 125.368 260.925 134.5 248.673V240.173C121.67 233.671 114 215.072 114 196.738C114 172.584 132.118 149.5 151.495 149.5C170.872 149.5 186 172.584 186 196.738C186 214.916 177.688 233.568 165.029 240.173V248.673C175.048 260.331 212.5 257.93 212.5 304H147Z" fill="black" filter="url(#f1)"/>
</svg>